<svg xmlns="http://www.w3.org/2000/svg" width="154.399" height="58.536" viewBox="0 0 154.399 58.536">
  <g id="Group_49" data-name="Group 49" transform="translate(178.212 0.21)">
    <path id="Path_115" data-name="Path 115" d="M491.3,552.933c-5.753.372-5.268-.114-11.656-.5-9.9-.47-19.792-1.186-29.691-1.409-7.343-.161-16.925-.124-23.335,2.717-8.009,3.307-7.729,9.035-8.416,15.487a88.6,88.6,0,0,0-.134,18.4c.6,5.486.553,11.7,6.594,15.565,7.948,5.154,17.856,3.634,27.118,3.838,8.3.184,16.6.366,25.225.559,7.348.164,14.692.074,22.036.237" transform="translate(-595.863 -551.178)" fill="#ff3f27"/>
    <path id="Path_117" data-name="Path 117" d="M520.909,552.561c6.705-.162,12.773.284,19.162.178,9.9-.031,19.8-.309,29.7-.088,7.345.165,16.919.626,23.286,3.749,7.957,3.658,7.6,9.372,8.188,15.852a88.768,88.768,0,0,1-.135,18.406c-.677,5.455-.724,11.674-6.818,15.273-8.02,4.8-17.9,2.835-27.168,2.63-8.3-.186-16.6-.369-25.225-.561-7.345-.165-14.687-.574-22.033-.736" transform="translate(-625.474 -550.805)" fill="#ff3f27"/>
  </g>
</svg>
