<svg xmlns="http://www.w3.org/2000/svg" width="37.046" height="40" viewBox="0 0 37.046 40">
  <g id="facebook-letter-logo-in-a-square-hand-drawn-outline" transform="translate(-17.209 0)">
    <g id="Group_46" data-name="Group 46" transform="translate(17.209 0)">
      <path id="Path_114" data-name="Path 114" d="M54.009,1.687A1.118,1.118,0,0,0,53.063.054C42.624-.209,29.116.6,18.677.2a.975.975,0,0,0-.754.275.994.994,0,0,0-.636.969c0,12.415-.529,25.13,1.21,37.458a.853.853,0,0,0,.534.729,1,1,0,0,0,.818.369c2-.01,4.876-.136,6.877-.146a1,1,0,0,0,.893-.486,1,1,0,0,0,.5-.9V26.026a1.2,1.2,0,0,0-.015-.155.973.973,0,0,0,.015-.138,1.124,1.124,0,0,0-1.1-1.1,27.553,27.553,0,0,0-2.882-.143c-.044-.259-.094-.955-.14-1.214a14.185,14.185,0,0,1,2.729-.252,1.126,1.126,0,0,0,.337-.056.911.911,0,0,0,1.053-1.041,51.259,51.259,0,0,1-.151-10.173c1.472-3.541,5.347-4.8,8.93-4.351V9.128c-6.428.238-7.661,6.546-6.253,12.069a1.123,1.123,0,0,0,.159.352,1.017,1.017,0,0,0,1.045.893h2.707V24.2a8.346,8.346,0,0,1-2.853.474c-.012,0-.022.007-.033.01A.939.939,0,0,0,30.6,25.733c.274,3.117.436,9.313.585,12.438a1.06,1.06,0,0,0,.776,1,1.1,1.1,0,0,0,.467.1c7.073.005,13.269.131,20.339-.146a1.041,1.041,0,0,0,.87-.486,1.024,1.024,0,0,0,.52-.9c.275-12-.136-24-.146-36C54.015,1.719,54.01,1.7,54.009,1.687Zm-2.03,35.266c-6.505.228-12.135.136-18.643.123-.122-3.037-.262-7.913-.462-10.387A9.817,9.817,0,0,0,36.2,25.8a1.014,1.014,0,0,0,.518-.843,1.207,1.207,0,0,0,.025-.251V21.344a1.039,1.039,0,0,0-1.105-1.061,1.171,1.171,0,0,0-.285-.037H32.669c-.989-4.258-.43-9.138,5.03-8.926a.954.954,0,0,0,1.009-.713,1,1,0,0,0,.381-.823V6.418a1.039,1.039,0,0,0-1.113-1.06c-5.086-.86-10.16.926-12.163,5.89a.951.951,0,0,0-.052.623,51.454,51.454,0,0,0,.051,8.992,12.164,12.164,0,0,0-3.33.593,1.135,1.135,0,0,0-.789,1.219,1.359,1.359,0,0,0,.022.277c.163.826.3,2.1.439,2.927a1.082,1.082,0,0,0,1.144.8c.021,0,.039.006.061.006.708,0,1.855.006,2.56.048V37.672c-1.5.027-3.876.095-5.375.12-1.577-11.634-1.1-23.653-1.066-35.374,9.916.32,22.581-.364,32.344-.194C51.842,13.8,52.216,25.377,51.979,36.953Z" transform="translate(-17.209 0)"/>
    </g>
  </g>
</svg>
