<svg xmlns="http://www.w3.org/2000/svg" width="39.864" height="40" viewBox="0 0 39.864 40">
  <g id="Group_64" data-name="Group 64" transform="translate(-0.753)">
    <path id="Path_141" data-name="Path 141" d="M123.484,179.9a1.641,1.641,0,0,0-.667.063,8.825,8.825,0,0,0-6.967,3.283,9.414,9.414,0,0,0-2.043,7.763c.611,3.252,3.7,6.752,9.049,6.752h0c.162,0,.323,0,.485-.012,4.262-.2,7.912-2.912,8.877-6.6a9.566,9.566,0,0,0-1.206-6.91C129.622,181.789,126.949,180.247,123.484,179.9Zm5.294,10.618c-.588,2.244-3.083,3.487-5.295,3.726a7.155,7.155,0,0,1-.76.041,5.6,5.6,0,0,1-5.146-2.977,5.074,5.074,0,0,1,.344-5.032,5.7,5.7,0,0,1,4.73-2.846,4.767,4.767,0,0,1,.859.079,1.708,1.708,0,0,0,.614.007,6.4,6.4,0,0,1,4.022,2.783A5.254,5.254,0,0,1,128.778,190.517Z" transform="translate(-102.718 -163.674)"/>
    <path id="Path_142" data-name="Path 142" d="M212.107,231.483a1.539,1.539,0,0,0-2.066.542,1.516,1.516,0,0,0,.542,2.066,3.219,3.219,0,0,1,1.173.857,1.791,1.791,0,0,1,.344,1.01c.056,1.943,3.076,1.949,3.02,0A5.125,5.125,0,0,0,212.107,231.483Z" transform="translate(-190.243 -210.449)"/>
    <path id="Path_143" data-name="Path 143" d="M291.188,47.87a1.076,1.076,0,0,0,1.1.887H295.8a1.527,1.527,0,0,0,1.406-1.289,30.81,30.81,0,0,1-.117-3.164,1.227,1.227,0,0,0-.046-.325A1.094,1.094,0,0,0,295.92,42.9h-3.4a2.318,2.318,0,0,0-1.641,1.523c.008.939.109,1.874.117,2.812A1.138,1.138,0,0,0,291.188,47.87Zm3.567-2.628c.005.391.016.781.035,1.172h-1.475c-.02-.39-.042-.781-.061-1.172Z" transform="translate(-263.975 -39.031)"/>
    <path id="Path_144" data-name="Path 144" d="M40.617,1.992a1.2,1.2,0,0,0-.049-.372A1.081,1.081,0,0,0,39.445.586C27.129.671,14.846.029,2.532,0A1.307,1.307,0,0,0,2.4.011C2.366.007,2.333,0,2.3,0A1.183,1.183,0,0,0,1.126,1.172V2.812a1.144,1.144,0,0,0,.019.18,1.243,1.243,0,0,0-.019.289c.649,10.9-.545,24.133-.352,35.038a1.242,1.242,0,0,0,.052.329,1.153,1.153,0,0,0,1.119,1.077c12.3.565,24.609.123,36.913-.117a1.1,1.1,0,0,0,1.08-.833,1.111,1.111,0,0,0,.209-.69c-.074-7.632.01-17.334.183-25.378a1.292,1.292,0,0,0,.033-1.46C40.437,8.1,40.522,4.992,40.617,1.992ZM37.8,37.286c-11.562.235-23.13.61-34.69.137-.085-7.707.474-17.306.545-25.279,11.425.807,22.876.963,34.326.977C37.819,20.762,37.74,30.059,37.8,37.286Zm.232-26.508c-6.34-.007-33.5-.915-34.376-.977,0-.259,0-.52,0-.778a1.351,1.351,0,0,0,0-.289C3.63,6.9,3.576,5.075,3.469,3.281a1.224,1.224,0,0,0-.036-.2,1.086,1.086,0,0,0,.036-.27V2.354c1.016.007,28.294.582,34.775.577C38.166,5.477,38.095,8.107,38.032,10.778Z" transform="translate(0)"/>
  </g>
</svg>
