<svg xmlns="http://www.w3.org/2000/svg" width="36.938" height="34.92" viewBox="0 0 36.938 34.92">
    <g transform="translate(39.841 40.462) rotate(167)">
        <path d="M31.2,21.284c-1.532-2.68-3.127-5.233-4.531-7.977a.86.86,0,0,0-1.532.191c-.766,2.744-1.723,6.062-1.6,8.87a.638.638,0,0,0,1.085.447.478.478,0,0,0,.319.064c.7-.064,1.4-.191,2.042-.255,2.3,5.807,4.148,15.889-4.658,16.528a3.059,3.059,0,0,1-2.106-.511,8.866,8.866,0,0,0,2.744-3.765c.7-1.914-.7-6-3.318-4.85-2.106.957-2.552,4.786-2.17,6.7a8.613,8.613,0,0,0,.511,1.532c-.192.128-.319.191-.511.319a10.528,10.528,0,0,1-5.552,1.34,3.061,3.061,0,0,1-2.744-1.851A6.664,6.664,0,0,0,12.69,34.3c.766-3.127-3.254-5.169-4.914-2.106A7.31,7.31,0,0,0,7.33,37.3c-.064.064-.191.064-.255.128-5.488,2.233-7.147-4.722-4.02-8.168.255-.319-.064-.83-.447-.574A5.879,5.879,0,0,0,3.5,38.961a6.425,6.425,0,0,0,4.339-.191,4.5,4.5,0,0,0,3.51,2.68,12.292,12.292,0,0,0,7.658-1.787,6.1,6.1,0,0,0,5.233.893c8.359-1.659,6.828-11.869,4.4-17.931a17.934,17.934,0,0,1,1.851-.064A.88.88,0,0,0,31.2,21.284ZM8.67,36.6a9.517,9.517,0,0,1-.128-1.34,7.192,7.192,0,0,1,.319-2.042,1.267,1.267,0,1,1,2.3,1.021A6.35,6.35,0,0,1,8.67,36.6Zm10.146-1.085c0-.893.383-4.084,1.723-4.148,1.021-.064,1.021,2.744.957,3.191a5.172,5.172,0,0,1-2.233,3A4.539,4.539,0,0,1,18.816,35.515Zm7.466-19.4c.893,1.659,1.851,3.254,2.808,4.85a39.406,39.406,0,0,0-3.956.766A38.01,38.01,0,0,0,26.282,16.115Z"
              transform="translate(0)" fill="#fff"/>
    </g>
</svg>
