<svg xmlns="http://www.w3.org/2000/svg" width="36.132" height="37.978" viewBox="0 0 36.132 37.978">
  <g id="up-arrow-with-scribble" transform="translate(8.628 37.978) rotate(-106)">
    <path id="Path_112" data-name="Path 112" d="M31.2,20.241c-1.531,2.68-3.127,5.233-4.531,7.977a.86.86,0,0,1-1.531-.191c-.766-2.744-1.723-6.062-1.6-8.87a.638.638,0,0,1,1.085-.447.478.478,0,0,1,.319-.064c.7.064,1.4.191,2.042.255,2.3-5.807,4.148-15.889-4.658-16.528a3.059,3.059,0,0,0-2.106.51,8.866,8.866,0,0,1,2.744,3.765c.7,1.914-.7,6-3.318,4.85-2.106-.957-2.552-4.786-2.17-6.7a8.613,8.613,0,0,1,.51-1.532c-.192-.128-.319-.191-.51-.319a10.528,10.528,0,0,0-5.552-1.34A3.061,3.061,0,0,0,9.182,3.458a6.664,6.664,0,0,1,3.51,3.765c.766,3.127-3.254,5.169-4.914,2.106a7.31,7.31,0,0,1-.447-5.105C7.268,4.16,7.14,4.16,7.076,4.1,1.588,1.863-.071,8.818,3.056,12.264c.255.319-.064.83-.447.574A5.879,5.879,0,0,1,3.5,2.565a6.425,6.425,0,0,1,4.339.191,4.5,4.5,0,0,1,3.51-2.68,12.291,12.291,0,0,1,7.657,1.787A6.1,6.1,0,0,1,24.242.97C32.6,2.629,31.07,12.839,28.645,18.9a17.933,17.933,0,0,0,1.851.064A.88.88,0,0,1,31.2,20.241ZM8.672,4.926a9.517,9.517,0,0,0-.128,1.34,7.192,7.192,0,0,0,.319,2.042,1.267,1.267,0,1,0,2.3-1.021A6.35,6.35,0,0,0,8.672,4.926ZM18.818,6.011c0,.893.383,4.084,1.723,4.148,1.021.064,1.021-2.744.957-3.191a5.172,5.172,0,0,0-2.233-3A4.539,4.539,0,0,0,18.818,6.011Zm7.466,19.4c.893-1.659,1.851-3.254,2.808-4.85a39.406,39.406,0,0,1-3.956-.766A38.01,38.01,0,0,1,26.284,25.41Z" transform="translate(0 0)" fill="#cecece"/>
  </g>
</svg>
