<svg xmlns="http://www.w3.org/2000/svg" width="44.11" height="48.727" viewBox="0 0 44.11 48.727">
  <g id="house-with-smoking-chimney-hand-drawn-rural-mountain-building" transform="translate(-9.215 0)">
    <path id="Path_113" data-name="Path 113" d="M49.138,4.844A5.364,5.364,0,0,0,43.416,0C41.837.044,39.872.946,39.4,2.4a1.431,1.431,0,0,0-2.107.5,3.16,3.16,0,0,0-.453.974.654.654,0,0,0-.479.6,5.322,5.322,0,0,0,.649,3.135c.013.042.027.082.04.123-2.8.805-1.36,4.194,1.12,5.275-.344.617-.726,1.206-1.029,1.845a23.97,23.97,0,0,0-8.119-5.612c-3.262-1.252-5.528,1.184-7.359,3.6C17.83,17.889,12.813,22.057,9.4,27.38A1.288,1.288,0,0,0,10.5,29.3a20.675,20.675,0,0,0,5.963-.547c.024,3.748-.3,7.488-.2,11.241.058,2.213.092,6.373,2.425,7.622,2.644,1.416,6.119,1.114,9.006,1.012,3.792-.133,7.568-.7,11.36-.768a1.292,1.292,0,0,0,1.247-.949c1.08-6.09-.065-12.126-.529-18.214a1.391,1.391,0,0,0,.212-.025c1.749-.383,3.523-.627,5.288-.918a1.249,1.249,0,0,0,.745-1.831c-2.038-2.8-4.282-5.977-6.818-8.866a1.061,1.061,0,0,0,.208-.159,6.154,6.154,0,0,0,.883-1.466,6.751,6.751,0,0,0,.454-1.034,3.513,3.513,0,0,0,2.274,2.214,4.366,4.366,0,0,0,2.207.6c1.843-.03,2.534-1.748,2.7-3.327,2.578-.126,5.063-1.662,5.367-4.456C53.593,6.7,51.593,5.05,49.138,4.844ZM42.764,25.621c-1.158.168-2.315.342-3.462.577a1.07,1.07,0,0,0-.9.893,1.115,1.115,0,0,0-1.213,1.227c.36,5.635,1.527,11.353.756,16.993-5.587.262-11.374,1.579-16.9.482-4.278-.849-1.712-14.454-2.989-17.985a.864.864,0,0,0-1.272-.427,17.891,17.891,0,0,0-3.88-.617c2.525-3.382,5.82-6.169,8.413-9.51,2.159-2.782,3.924-7.7,8.086-5.568C34.826,14.467,39.178,20.527,42.764,25.621Zm-2.627-13.26a1.1,1.1,0,0,0-.857-.333c-.024-.012-.048-.022-.071-.034-1.148-.628-2.676-2.089-.272-2.464a.667.667,0,0,0,.292-1.105,8.838,8.838,0,0,1-.59-.691,5.053,5.053,0,0,1-.476-2.4c0-.1.019-.2.026-.3a2.724,2.724,0,0,1,2.2.76.621.621,0,0,0,.97-.749c-1.249-2.138,1.067-3.1,2.888-3.124a3.947,3.947,0,0,1,1.614.292A3.971,3.971,0,0,1,47.5,5.132a5.451,5.451,0,0,1-.292,1.514.7.7,0,0,0,.86.859c2.033-.665,3.029.727,2.622,2.66-.5,2.4-2.538,2.163-4.36,1.483-.733-.274-1.169.612-.908,1.181a1.606,1.606,0,0,1-.96,2.4,6.409,6.409,0,0,1-2.57-2.173.844.844,0,0,0-1.138-.265.372.372,0,0,0-.294-.334C40.348,12.433,40.245,12.392,40.137,12.361Z" transform="translate(0 0)"/>
  </g>
</svg>
