<svg xmlns="http://www.w3.org/2000/svg" width="1919.999" height="44.002" viewBox="0 0 1919.999 44.002">
  <g transform="translate(6089 -15615.279)" fill="#ffc142">
    <path d="M -4169.50146484375 15658.78125 L -6088.5 15658.78125 L -6088.5 15639.166015625 L -6080.42236328125 15647.5341796875 L -6080.2509765625 15647.7119140625 L -6080.0068359375 15647.6845703125 L -5860.4677734375 15623.1328125 L -5743.2548828125 15640.064453125 L -5743.1953125 15640.0732421875 L -5743.1357421875 15640.0673828125 L -5567.26318359375 15623.1318359375 L -5447.546875 15640.064453125 L -5447.41259765625 15640.0830078125 L -5447.28662109375 15640.03125 L -5406.224609375 15623.138671875 L -5226.68115234375 15640.0673828125 L -5226.64013671875 15640.0712890625 L -5226.59912109375 15640.068359375 L -4984.65380859375 15623.1357421875 L -4953.56787109375 15635.6328125 L -4953.41552734375 15635.6943359375 L -4953.2568359375 15635.6533203125 L -4904.67822265625 15623.1337890625 L -4680.17041015625 15640.068359375 L -4680.12109375 15640.0712890625 L -4680.072265625 15640.0654296875 L -4481.52294921875 15615.779296875 L -4475.5849609375 15615.779296875 L -4214.77392578125 15635.6669921875 L -4214.7216796875 15635.671875 L -4214.66943359375 15635.6640625 L -4169.50146484375 15629.6064453125 L -4169.50146484375 15658.78125 Z" stroke="none"/>
  </g>
</svg>
