<svg xmlns="http://www.w3.org/2000/svg" width="23.8" height="24.899" viewBox="0 0 23.8 24.899">
    <g transform="translate(-1108.999 -1599)">
        <g transform="translate(1287.211 1599.21)">
            <path d="M429,551.8c-.887.158-.812-.049-1.8-.215-1.526-.2-3.051-.5-4.577-.6a4,4,0,0,0-3.6,1.156c-1.235,1.407-1.191,3.843-1.3,6.588-.105,2.639-.113,5.283-.021,7.829.092,2.334.085,4.978,1.016,6.621,1.225,2.193,2.752,1.546,4.18,1.633,1.28.078,2.559.155,3.888.238,1.133.07,2.265.032,3.4.1"
                  transform="translate(-595.863 -551.178)" fill="#fff"/>
            <path d="M520.029,552.54c1.034-.069,1.969.121,2.954.076,1.526-.013,3.052-.131,4.579-.037a4.453,4.453,0,0,1,3.589,1.595c1.227,1.556,1.171,3.987,1.262,6.743.091,2.651.084,5.3-.021,7.83-.1,2.321-.112,4.966-1.051,6.5-1.236,2.04-2.76,1.206-4.188,1.119l-3.888-.239c-1.132-.07-2.264-.244-3.4-.313"
                  transform="translate(-686.889 -551.914)" fill="#fff"/>
        </g>
    </g>
</svg>
