<svg xmlns="http://www.w3.org/2000/svg" width="334.016" height="60.495" viewBox="0 0 334.016 60.495">
  <g id="Group_49" data-name="Group 49" transform="translate(179.219 1.195)">
    <path id="Path_115" data-name="Path 115" d="M576.012,552.933c-12.37.372-11.328-.114-25.063-.5-21.281-.47-42.557-1.186-63.844-1.409-15.79-.161-36.394-.124-50.176,2.717-17.223,3.307-16.619,9.035-18.1,15.487a41.619,41.619,0,0,0-.289,18.4c1.283,5.486,1.19,11.7,14.179,15.565,17.091,5.154,38.4,3.634,58.312,3.838,17.85.184,35.7.366,54.242.559,15.8.164,31.592.074,47.384.237" transform="translate(-595.863 -551.178)" fill="none" stroke="#fff" stroke-width="2"/>
    <path id="Path_117" data-name="Path 117" d="M522.105,552.561c14.418-.162,27.465.284,41.2.178,21.287-.031,42.58-.309,63.872-.088,15.793.165,36.381.626,50.07,3.749,17.11,3.658,16.337,9.372,17.608,15.852a41.7,41.7,0,0,1-.29,18.406c-1.456,5.455-1.557,11.674-14.661,15.273-17.245,4.8-38.5,2.835-58.419,2.63-17.849-.186-35.7-.369-54.242-.561-15.793-.165-31.581-.574-47.378-.736" transform="translate(-541.957 -550.805)" fill="none" stroke="#fff" stroke-width="2"/>
  </g>
</svg>
