<svg xmlns="http://www.w3.org/2000/svg" width="681.031" height="108.127" viewBox="0 0 681.031 108.127">
  <g id="Group_49" data-name="Group 49" transform="translate(1.015 0.973)">
    <path id="Path_115" data-name="Path 115" d="M741.526,554.534c-25.3.674-23.169-.207-51.257-.915-43.523-.852-87.037-2.151-130.573-2.556-32.293-.292-74.433-.225-102.618,4.929-35.223,6-33.989,16.391-37.01,28.1a67.214,67.214,0,0,0-.59,33.39c2.624,9.953,2.433,21.231,29,28.24,34.955,9.351,78.525,6.593,119.259,6.964,36.507.333,73.021.663,110.934,1.014,32.315.3,64.612.135,96.908.429" transform="translate(-417.652 -550.968)" fill="none" stroke="#fff" stroke-width="2"/>
    <path id="Path_117" data-name="Path 117" d="M524.442,552.59c29.488-.295,56.171.515,84.269.324,43.536-.056,87.084-.56,130.629-.16,32.3.3,74.4,1.135,102.4,6.8,34.992,6.636,33.412,17,36.011,28.759a67.339,67.339,0,0,1-.593,33.394c-2.977,9.9-3.183,21.179-29.985,27.71-35.27,8.7-78.74,5.143-119.477,4.772-36.5-.337-73.018-.67-110.934-1.019-32.3-.3-64.59-1.041-96.9-1.335" transform="translate(-200.567 -549.024)" fill="none" stroke="#fff" stroke-width="2"/>
  </g>
</svg>
