<svg xmlns="http://www.w3.org/2000/svg" width="326.612" height="58.536" viewBox="0 0 326.612 58.536">
  <g id="Group_48" data-name="Group 48" transform="translate(178.212 0.21)">
    <path id="Path_115" data-name="Path 115" d="M573.441,552.933c-12.169.372-11.145-.114-24.656-.5-20.936-.47-41.867-1.186-62.808-1.409-15.534-.161-35.8-.124-49.361,2.717-16.943,3.307-16.35,9.035-17.8,15.487a42.29,42.29,0,0,0-.284,18.4c1.262,5.486,1.171,11.7,13.949,15.565,16.814,5.154,37.772,3.634,57.366,3.838,17.561.184,35.124.366,53.361.559,15.544.164,31.079.074,46.615.237" transform="translate(-595.863 -551.178)" fill="#ff3f27"/>
    <path id="Path_117" data-name="Path 117" d="M522.069,552.561c14.184-.162,27.019.284,40.535.178,20.942-.031,41.889-.309,62.835-.088,15.537.165,35.79.626,49.258,3.749,16.832,3.658,16.072,9.372,17.322,15.852a42.368,42.368,0,0,1-.285,18.406c-1.432,5.455-1.531,11.674-14.423,15.273-16.966,4.8-37.876,2.835-57.471,2.63-17.559-.186-35.123-.369-53.361-.561-15.537-.165-31.069-.574-46.609-.736" transform="translate(-544.491 -550.805)" fill="#ff3f27"/>
  </g>
</svg>
